<svg height="511pt" viewBox="-25 0 511 511.99997" width="511pt" xmlns="http://www.w3.org/2000/svg"><path d="m352.574219 353.121094c-4.472657-6.558594-6.375-14.53125-5.351563-22.402344l16.890625-129.488281c1.484375-11.363281-.382812-22.914063-5.363281-33.238281l-72.738281-150.679688c-6.363281-13.179688-21.160157-20.015625-35.320313-16.3125-17.394531 4.546875-27.144531 23.027344-21.078125 39.953125 6.144531 17.152344 12.292969 34.304687 18.4375 51.460937 4.65625 12.988282 9.308594 25.976563 13.964844 38.964844 3.324219 9.273438 6.832031 18.40625 9.832031 27.738282-5.078125 1.621093-8.175781 2.125-12.347656 5.800781-5.84375 5.15625-9.347656 11.765625-9.347656 19.585937v56.226563 42.0625c0 11.769531.929687 23.332031-1.234375 34.976562-1.34375 7.210938-3.296875 17.699219-3.296875 17.707031-.949219 5.109376-1.207032 10.320313-.792969 15.480469 1.046875 13.097657 6.15625 25.066407 15.015625 34.882813 4.710938 5.21875 9.554688 10.328125 14.402344 15.453125 4.417968 4.664062 7.960937 10.085937 10.46875 16.003906l40.160156 94.703125h136.101562zm0 0" fill="#fed2a4"/><path d="m201.710938 164.550781c-3.441407-2.746093-7.621094-4.640625-12.222657-5.367187 3.476563-9.179688 6.660157-18.546875 9.976563-27.800782 6.960937-19.433593 13.925781-38.871093 20.890625-58.304687 3.835937-10.707031 7.671875-21.417969 11.511719-32.125 6.0625-16.925781-3.6875-35.40625-21.078126-39.953125-14.160156-3.703125-28.960937 3.132812-35.320312 16.3125l-72.742188 150.679688c-4.980468 10.320312-6.84375 21.871093-5.363281 33.238281l16.890625 129.488281c1.027344 7.871094-.878906 15.84375-5.351562 22.402344l-108.402344 158.878906h136.101562l40.160157-94.703125c2.511719-5.914063 6.054687-11.335937 10.472656-16.003906 4.847656-5.121094 9.691406-10.234375 14.402344-15.453125 9.976562-11.054688 15.105469-24.496094 15.207031-39.210938.066406-9.671875-2.511719-19.367187-4.28125-28.859375-.703125-3.777343-1.238281-6.65625-1.238281-6.65625v-126.609375c0-7.757812-3.519531-15.089844-9.613281-19.953125zm0 0" fill="#fed2a4"/><path d="m460.980469 511.996094h-24.773438l-108.410156-158.878906c-4.472656-6.558594-6.378906-14.53125-5.351563-22.402344l16.894532-129.488282c1.488281-11.363281-.382813-22.914062-5.367188-33.238281l-72.730468-150.675781c-3.261719-6.75-8.722657-11.828125-15.1875-14.6875 1.476562-.660156 3.027343-1.199219 4.636718-1.621094 14.164063-3.707031 28.953125 3.125 35.324219 16.308594l72.730469 150.675781c4.984375 10.324219 6.855468 21.875 5.367187 33.238281l-16.890625 129.488282c-1.027344 7.871094.878906 15.84375 5.351563 22.402344zm0 0" fill="#ffbd86"/><path d="m286.875 422.394531c.011719-.003906-1.507812-3.492187-1.609375-3.730469-4.449219-10.308593-12.265625-18.929687-19.933594-27.054687-3.589843-3.804687-7.078125-7.722656-10.160156-11.957031-6.285156-8.644532-10.628906-21.210938-10.582031-31.949219.015625-4.109375.667968-8.191406 1.421875-12.222656 1.5-8.085938 3.378906-16.179688 4.140625-24.367188 1.058594-11.4375.390625-107.507812.390625-126.609375 0-13.96875 11.191406-25.324218 25.097656-25.59375 14.34375-.277344 26.101563 11.808594 26.101563 26.15625 0 42.890625-.375 85.78125-.902344 128.671875-.125 10.101563-1.730469 20.261719 2.898437 29.617188 3.023438 6.113281 32.714844 56.902343 33.285157 56.644531-.023438.011719-50.148438 22.394531-50.148438 22.394531zm0 0" fill="#f7c597"/><path d="m176.105469 422.394531c-.007813-.003906 1.511719-3.492187 1.613281-3.730469 4.683594-10.859374 11.921875-18.566406 19.929688-27.054687 10.484374-11.105469 17.84375-21.445313 19.992187-36.871094.894531-6.414062.515625-12.90625-.667969-19.257812-1.503906-8.085938-3.382812-16.179688-4.140625-24.367188-1.09375-11.8125-.390625-122.789062-.390625-126.605469 0-13.96875-11.191406-25.328124-25.097656-25.59375-14.34375-.277343-26.101562 11.808594-26.101562 26.15625 0 42.890626.371093 85.78125.902343 128.667969.125 10.101563 1.730469 20.265625-2.898437 29.617188-3.503906 7.082031-8.109375 13.585937-12.230469 20.316406-2.105469 3.441406-21.628906 36.074219-21.054687 36.332031.011718.003906 50.144531 22.390625 50.144531 22.390625zm0 0" fill="#f7c597"/><path d="m403.703125 414.175781 57.273437 97.824219h-147.863281l-23.804687-48.292969zm0 0" fill="#57bf93"/><path d="m289.308594 463.707031 114.394531-49.53125-11.8125-27.28125c-2.289063-5.289062-8.4375-7.722656-13.726563-5.429687l-95.238281 41.238281c-5.289062 2.289063-7.71875 8.433594-5.429687 13.722656zm0 0" fill="#efe2dd"/><path d="m391.890625 386.898438c-2.289063-5.292969-8.433594-7.71875-13.726563-5.4375l-4.820312 2.085937-19.128906 8.289063 23.0625 33.785156 19.125-8.28125 7.296875-3.15625zm0 0" fill="#e1d3ce"/><path d="m403.699219 414.183594-7.296875 3.15625-19.128906 8.277344 58.933593 86.378906h24.773438zm0 0" fill="#1fb480"/><path d="m172.171875 463.707031-114.394531-49.53125 11.8125-27.28125c2.289062-5.289062 8.433594-7.722656 13.722656-5.429687l95.238281 41.238281c5.289063 2.289063 7.722657 8.433594 5.433594 13.722656zm0 0" fill="#efe2dd"/><path d="m57.777344 414.175781-57.277344 97.824219h147.863281l23.808594-48.292969zm0 0" fill="#57bf93"/></svg>