<svg xmlns="http://www.w3.org/2000/svg" width="50" height="44.354" viewBox="0 0 50 44.354">
  <g id="heart_like" data-name="heart like" transform="translate(-51.36 -18.8)">
    <g id="Group_1729" data-name="Group 1729" transform="translate(51.358 18.8)">
      <path id="Path_2990" data-name="Path 2990" d="M28.255,52.207c4.194,3.341,8.1,6.468,10.306,10.235a1.466,1.466,0,0,0,1.208.711h.142a1.376,1.376,0,0,0,1.208-.711c2.132-3.767,6.113-6.895,10.306-10.235,6.752-5.4,13.789-11.017,13.434-19.9A13.853,13.853,0,0,0,51.214,18.8a13.454,13.454,0,0,0-11.373,6.184A13.545,13.545,0,0,0,28.468,18.8,13.807,13.807,0,0,0,14.892,32.376C14.466,41.19,21.432,46.805,28.255,52.207Z" transform="translate(-14.874 -18.8)" fill="#ff3b30"/>
    </g>
  </g>
</svg>
